hub login
 hub bucket init
 hub buck link

Enter your username or email: serg.frm@gmail.com█
> We sent an email to the account address. Please follow the steps provided inside it.
✔ Email confirmed
> Success! You are now logged in. Initialize a new bucket with `hub buck init`.
Enter a name for your new bucket (optional): █
✗ Encrypt bucket contents: 
> Selected threadDB bafk3eedc4dodjvf6mlsdhyhucrmdb2ocjfqy3w2gozfhplfwzabylra
> Your bucket links:
> https://hub.textile.io/thread/bafk3eedc4dodjvf6mlsdhyhucrmdb2ocjfqy3w2gozfhplfwzabylra/buckets/bafzbeigc2hg7qu77jgt7rbne4mmq6eciwiyy5xsavmnzsfti4yr3rfyfiq Thread link
> https://hub.textile.io/ipns/bafzbeigc2hg7qu77jgt7rbne4mmq6eciwiyy5xsavmnzsfti4yr3rfyfiq IPNS link (propagation can be slow)
> https://bafzbeigc2hg7qu77jgt7rbne4mmq6eciwiyy5xsavmnzsfti4yr3rfyfiq.textile.space Bucket website
> Success! Initialized /Users/sergeysamoylenko/sources/videocoin/videocoin-nft-demo/textilehub-test/assets as a new empty bucket
> Your bucket links:
> https://hub.textile.io/thread/bafk3eedc4dodjvf6mlsdhyhucrmdb2ocjfqy3w2gozfhplfwzabylra/buckets/bafzbeigc2hg7qu77jgt7rbne4mmq6eciwiyy5xsavmnzsfti4yr3rfyfiq Thread link
> https://hub.textile.io/ipns/bafzbeigc2hg7qu77jgt7rbne4mmq6eciwiyy5xsavmnzsfti4yr3rfyfiq IPNS link (propagation can be slow)
> https://bafzbeigc2hg7qu77jgt7rbne4mmq6eciwiyy5xsavmnzsfti4yr3rfyfiq.textile.space Bucket website
➜  assets git:(main) ✗  hub buck link
> Your bucket links:
> https://hub.textile.io/thread/bafk3eedc4dodjvf6mlsdhyhucrmdb2ocjfqy3w2gozfhplfwzabylra/buckets/bafzbeigc2hg7qu77jgt7rbne4mmq6eciwiyy5xsavmnzsfti4yr3rfyfiq Thread link
> https://hub.textile.io/ipns/bafzbeigc2hg7qu77jgt7rbne4mmq6eciwiyy5xsavmnzsfti4yr3rfyfiq IPNS link (propagation can be slow)
> https://bafzbeigc2hg7qu77jgt7rbne4mmq6eciwiyy5xsavmnzsfti4yr3rfyfiq.textile.space Bucket website
➜  assets git:(main) ✗ 

VidNft721.deploy("VidNftTest", "TST1", {'from':accounts[0]})
Transaction sent: 0x6a0ea391d751d31e00152501f3ca75d65e99cc08adedda994677b5f49ff67df5
  Gas price: 1.000000026 gwei   Gas limit: 2597475   Nonce: 0
  VidNft721.constructor confirmed   Block: 9530599   Gas used: 2361341 (90.91%)
  VidNft721 deployed at: 0x3649D96eCf0bD2808B2836386Aba919EC14Aa719

<VidNft721 Contract '0x3649D96eCf0bD2808B2836386Aba919EC14Aa719'>

➜  textilehub-test git:(main) ✗ python3 mint_nft.py -t 1730 -u https://hub.textile.io/ipns/bafzbeigc2hg7qu77jgt7rbne4mmq6eciwiyy5xsavmnzsfti4yr3rfyfiq/QmPo6HnuYjnfmyahy4WUvLwRgp1breG5gKPkFZJj3VSjDU
Current block 9530819
0x902e5A37d3cCd68563C27AE7dBC35A63f0fD6035
<web3.contract.ContractFunctions object at 0x7fe599727160>
mint tx-hash 0xaf0b0698869b662569e7391a084414c235dcff32f022bf6c9501c59fe0463f23
Transaction receipt mined:
{'blockHash': HexBytes('0x97c59e18a162dae5cb06e0fa25c44e8eb4e01a6b81b2c6ee0b93ed865bd417f0'),
 'blockNumber': 9530820,
 'contractAddress': None,
 'cumulativeGasUsed': 336821,
 'effectiveGasPrice': 21000000000,
 'from': '0x902e5A37d3cCd68563C27AE7dBC35A63f0fD6035',
 'gasUsed': 180474,
 'logs': [AttributeDict({'address': '0x3649D96eCf0bD2808B2836386Aba919EC14Aa719', 'blockHash': HexBytes('0x97c59e18a162dae5cb06e0fa25c44e8eb4e01a6b81b2c6ee0b93ed865bd417f0'), 'blockNumber': 9530820, 'data': '0x', 'logIndex': 0, 'removed': False, 'topics': [HexBytes('0xddf252ad1be2c89b69c2b068fc378daa952ba7f163c4a11628f55a4df523b3ef'), HexBytes('0x0000000000000000000000000000000000000000000000000000000000000000'), HexBytes('0x000000000000000000000000902e5a37d3ccd68563c27ae7dbc35a63f0fd6035'), HexBytes('0x00000000000000000000000000000000000000000000000000000000000006c2')], 'transactionHash': HexBytes('0xaf0b0698869b662569e7391a084414c235dcff32f022bf6c9501c59fe0463f23'), 'transactionIndex': 1})],
 'logsBloom': HexBytes('0x00000000000000000000200000000000000000000000000000000000000000000000000000000000000000000000000000000000000000000000000000000000000004000000000000000008000000000000000000000000000000000101000000000000020000000000000000000800010000001000000000000010000000000000000000000000000000000000000000000000000000000000000000000000000000000000000000000000000000000000000000000000000000000000000400000002000000000000000010000000000000000000000000000000000020010000000000000000000000000000000000000000000000000000000000000000'),
 'status': 1,
 'to': '0x3649D96eCf0bD2808B2836386Aba919EC14Aa719',
 'transactionHash': HexBytes('0xaf0b0698869b662569e7391a084414c235dcff32f022bf6c9501c59fe0463f23'),
 'transactionIndex': 1,
 'type': '0x0'}

Was transaction successful?
1
mint tx-hash 0x61973ae18c4f46ec93e8f8298e40289f87c4a95eea74349453cdd45c944c3f1b
Transaction receipt mined:
{'blockHash': HexBytes('0xfcb5db73f197f743a46db93991aabf9855399523b32bd44d3e0bc9d05ecce62d'),
 'blockNumber': 9530821,
 'contractAddress': None,
 'cumulativeGasUsed': 160062,
 'effectiveGasPrice': 21000000000,
 'from': '0x902e5A37d3cCd68563C27AE7dBC35A63f0fD6035',
 'gasUsed': 160062,
 'logs': [],
 'logsBloom': HexBytes('0x00000000000000000000000000000000000000000000000000000000000000000000000000000000000000000000000000000000000000000000000000000000000000000000000000000000000000000000000000000000000000000000000000000000000000000000000000000000000000000000000000000000000000000000000000000000000000000000000000000000000000000000000000000000000000000000000000000000000000000000000000000000000000000000000000000000000000000000000000000000000000000000000000000000000000000000000000000000000000000000000000000000000000000000000000000000'),
 'status': 1,
 'to': '0x3649D96eCf0bD2808B2836386Aba919EC14Aa719',
 'transactionHash': HexBytes('0x61973ae18c4f46ec93e8f8298e40289f87c4a95eea74349453cdd45c944c3f1b'),
 'transactionIndex': 0,
 'type': '0x0'}

Was transaction successful?
1

➜  textilehub-test git:(main) ✗ python3 create_assets.py -i test_engine.mp4 -t 3000 -n "Engine nft" -d "Engine cool nft" -g "https://hub.textile.io/ipns/bafzbeigc2hg7qu77jgt7rbne4mmq6eciwiyy5xsavmnzsfti4yr3rfyfiq"
ffmpeg version 4.1.3-tessus  https://evermeet.cx/ffmpeg/  Copyright (c) 2000-2019 the FFmpeg developers
  built with Apple LLVM version 10.0.1 (clang-1001.0.46.3)
  configuration: --cc=/usr/bin/clang --prefix=/opt/ffmpeg --extra-version=tessus --enable-avisynth --enable-fontconfig --enable-gpl --enable-libaom --enable-libass --enable-libbluray --enable-libfreetype --enable-libgsm --enable-libmodplug --enable-libmp3lame --enable-libmysofa --enable-libopencore-amrnb --enable-libopencore-amrwb --enable-libopus --enable-librubberband --enable-libshine --enable-libsnappy --enable-libsoxr --enable-libspeex --enable-libtheora --enable-libtwolame --enable-libvidstab --enable-libvo-amrwbenc --enable-libvorbis --enable-libvpx --enable-libwavpack --enable-libx264 --enable-libx265 --enable-libxavs --enable-libxvid --enable-libzimg --enable-libzmq --enable-libzvbi --enable-version3 --pkg-config-flags=--static --disable-ffplay
  libavutil      56. 22.100 / 56. 22.100
  libavcodec     58. 35.100 / 58. 35.100
  libavformat    58. 20.100 / 58. 20.100
  libavdevice    58.  5.100 / 58.  5.100
  libavfilter     7. 40.101 /  7. 40.101
  libswscale      5.  3.100 /  5.  3.100
  libswresample   3.  3.100 /  3.  3.100
  libpostproc    55.  3.100 / 55.  3.100
Input #0, mov,mp4,m4a,3gp,3g2,mj2, from 'test_engine.mp4':
  Metadata:
    major_brand     : isom
    minor_version   : 512
    compatible_brands: isomiso2avc1mp41
    encoder         : Lavf58.20.100
  Duration: 00:02:00.03, start: 0.000000, bitrate: 895 kb/s
    Stream #0:0(und): Video: h264 (High) (avc1 / 0x31637661), yuv420p, 960x540 [SAR 1:1 DAR 16:9], 759 kb/s, 30 fps, 30 tbr, 16k tbn, 60 tbc (default)
    Metadata:
      handler_name    : VideoHandler
    Stream #0:1(und): Audio: mp3 (mp4a / 0x6134706D), 48000 Hz, stereo, fltp, 128 kb/s (default)
    Metadata:
      handler_name    : SoundHandler
Output #0, mp4, to 'encrypted_test_engine.mp4':
  Metadata:
    major_brand     : isom
    minor_version   : 512
    compatible_brands: isomiso2avc1mp41
    encoder         : Lavf58.20.100
    Stream #0:0(und): Video: h264 (High) (avc1 / 0x31637661), yuv420p, 960x540 [SAR 1:1 DAR 16:9], q=2-31, 759 kb/s, 30 fps, 30 tbr, 16k tbn, 16k tbc (default)
    Metadata:
      handler_name    : VideoHandler
    Stream #0:1(und): Audio: mp3 (mp4a / 0x6134706D), 48000 Hz, stereo, fltp, 128 kb/s (default)
    Metadata:
      handler_name    : SoundHandler
Stream mapping:
  Stream #0:0 -> #0:0 (copy)
  Stream #0:1 -> #0:1 (copy)
Press [q] to stop, [?] for help
frame= 3601 fps=0.0 q=-1.0 Lsize=   13247kB time=00:02:00.00 bitrate= 904.3kbits/s speed= 934x    
video:11130kB audio:1875kB subtitle:0kB other streams:0kB global headers:0kB muxing overhead: 1.859892%
Input #0, mov,mp4,m4a,3gp,3g2,mj2, from 'test_engine.mp4':
  Metadata:
    major_brand     : isom
    minor_version   : 512
    compatible_brands: isomiso2avc1mp41
    encoder         : Lavf58.20.100
  Duration: 00:02:00.03, start: 0.000000, bitrate: 895 kb/s
    Stream #0:0(und): Video: h264 (High) (avc1 / 0x31637661), yuv420p, 960x540 [SAR 1:1 DAR 16:9], 759 kb/s, 30 fps, 30 tbr, 16k tbn, 60 tbc (default)
    Metadata:
      handler_name    : VideoHandler
    Stream #0:1(und): Audio: mp3 (mp4a / 0x6134706D), 48000 Hz, stereo, fltp, 128 kb/s (default)
    Metadata:
      handler_name    : SoundHandler
Stream mapping:
  Stream #0:0 -> #0:0 (h264 (native) -> mjpeg (native))
Press [q] to stop, [?] for help
[swscaler @ 0x7f97784c2000] deprecated pixel format used, make sure you did set range correctly
Output #0, image2, to 'image.jpg':
  Metadata:
    major_brand     : isom
    minor_version   : 512
    compatible_brands: isomiso2avc1mp41
    encoder         : Lavf58.20.100
    Stream #0:0(und): Video: mjpeg, yuvj420p(pc), 960x540 [SAR 1:1 DAR 16:9], q=2-31, 200 kb/s, 30 fps, 30 tbn, 30 tbc (default)
    Metadata:
      handler_name    : VideoHandler
      encoder         : Lavc58.35.100 mjpeg
    Side data:
      cpb: bitrate max/min/avg: 0/0/200000 buffer size: 0 vbv_delay: -1
frame=    1 fps=0.0 q=6.2 Lsize=N/A time=00:00:00.03 bitrate=N/A speed=0.498x    
video:42kB audio:0kB subtitle:0kB other streams:0kB global headers:0kB muxing overhead: unknown
/Library/Frameworks/Python.framework/Versions/3.8/lib/python3.8/site-packages/ipfshttpclient/client/__init__.py:75: VersionMismatch: Unsupported daemon version '0.10.0' (not in range: 0.5.0 ≤ … < 0.9.0)
  warnings.warn(exceptions.VersionMismatch(version, minimum, maximum))
<ipfshttpclient.client.base.ResponseBase: {'Name': 'test_engine.mp4', 'Hash': 'QmRiCwvf6542S3SV6JSnLriEoHTom1MrT55steKsAt8s9K', 'Size': '13445808'}>
QmRiCwvf6542S3SV6JSnLriEoHTom1MrT55steKsAt8s9K
➜  textilehub-test git:(main) ✗ python3 create_assets.py -i test_engine.mp4 -t 3000 -n "Engine nft" -d "Engine cool nft" -g "https://hub.textile.io/ipns/bafzbeigc2hg7qu77jgt7rbne4mmq6eciwiyy5xsavmnzsfti4yr3rfyfiq/"
ffmpeg version 4.1.3-tessus  https://evermeet.cx/ffmpeg/  Copyright (c) 2000-2019 the FFmpeg developers
  built with Apple LLVM version 10.0.1 (clang-1001.0.46.3)
  configuration: --cc=/usr/bin/clang --prefix=/opt/ffmpeg --extra-version=tessus --enable-avisynth --enable-fontconfig --enable-gpl --enable-libaom --enable-libass --enable-libbluray --enable-libfreetype --enable-libgsm --enable-libmodplug --enable-libmp3lame --enable-libmysofa --enable-libopencore-amrnb --enable-libopencore-amrwb --enable-libopus --enable-librubberband --enable-libshine --enable-libsnappy --enable-libsoxr --enable-libspeex --enable-libtheora --enable-libtwolame --enable-libvidstab --enable-libvo-amrwbenc --enable-libvorbis --enable-libvpx --enable-libwavpack --enable-libx264 --enable-libx265 --enable-libxavs --enable-libxvid --enable-libzimg --enable-libzmq --enable-libzvbi --enable-version3 --pkg-config-flags=--static --disable-ffplay
  libavutil      56. 22.100 / 56. 22.100
  libavcodec     58. 35.100 / 58. 35.100
  libavformat    58. 20.100 / 58. 20.100
  libavdevice    58.  5.100 / 58.  5.100
  libavfilter     7. 40.101 /  7. 40.101
  libswscale      5.  3.100 /  5.  3.100
  libswresample   3.  3.100 /  3.  3.100
  libpostproc    55.  3.100 / 55.  3.100
Input #0, mov,mp4,m4a,3gp,3g2,mj2, from 'test_engine.mp4':
  Metadata:
    major_brand     : isom
    minor_version   : 512
    compatible_brands: isomiso2avc1mp41
    encoder         : Lavf58.20.100
  Duration: 00:02:00.03, start: 0.000000, bitrate: 895 kb/s
    Stream #0:0(und): Video: h264 (High) (avc1 / 0x31637661), yuv420p, 960x540 [SAR 1:1 DAR 16:9], 759 kb/s, 30 fps, 30 tbr, 16k tbn, 60 tbc (default)
    Metadata:
      handler_name    : VideoHandler
    Stream #0:1(und): Audio: mp3 (mp4a / 0x6134706D), 48000 Hz, stereo, fltp, 128 kb/s (default)
    Metadata:
      handler_name    : SoundHandler
Output #0, mp4, to 'encrypted_test_engine.mp4':
  Metadata:
    major_brand     : isom
    minor_version   : 512
    compatible_brands: isomiso2avc1mp41
    encoder         : Lavf58.20.100
    Stream #0:0(und): Video: h264 (High) (avc1 / 0x31637661), yuv420p, 960x540 [SAR 1:1 DAR 16:9], q=2-31, 759 kb/s, 30 fps, 30 tbr, 16k tbn, 16k tbc (default)
    Metadata:
      handler_name    : VideoHandler
    Stream #0:1(und): Audio: mp3 (mp4a / 0x6134706D), 48000 Hz, stereo, fltp, 128 kb/s (default)
    Metadata:
      handler_name    : SoundHandler
Stream mapping:
  Stream #0:0 -> #0:0 (copy)
  Stream #0:1 -> #0:1 (copy)
Press [q] to stop, [?] for help
frame= 3601 fps=0.0 q=-1.0 Lsize=   13247kB time=00:02:00.00 bitrate= 904.3kbits/s speed= 879x    
video:11130kB audio:1875kB subtitle:0kB other streams:0kB global headers:0kB muxing overhead: 1.859892%
Input #0, mov,mp4,m4a,3gp,3g2,mj2, from 'test_engine.mp4':
  Metadata:
    major_brand     : isom
    minor_version   : 512
    compatible_brands: isomiso2avc1mp41
    encoder         : Lavf58.20.100
  Duration: 00:02:00.03, start: 0.000000, bitrate: 895 kb/s
    Stream #0:0(und): Video: h264 (High) (avc1 / 0x31637661), yuv420p, 960x540 [SAR 1:1 DAR 16:9], 759 kb/s, 30 fps, 30 tbr, 16k tbn, 60 tbc (default)
    Metadata:
      handler_name    : VideoHandler
    Stream #0:1(und): Audio: mp3 (mp4a / 0x6134706D), 48000 Hz, stereo, fltp, 128 kb/s (default)
    Metadata:
      handler_name    : SoundHandler
Stream mapping:
  Stream #0:0 -> #0:0 (h264 (native) -> mjpeg (native))
Press [q] to stop, [?] for help
[swscaler @ 0x7fef799c2000] deprecated pixel format used, make sure you did set range correctly
Output #0, image2, to 'image.jpg':
  Metadata:
    major_brand     : isom
    minor_version   : 512
    compatible_brands: isomiso2avc1mp41
    encoder         : Lavf58.20.100
    Stream #0:0(und): Video: mjpeg, yuvj420p(pc), 960x540 [SAR 1:1 DAR 16:9], q=2-31, 200 kb/s, 30 fps, 30 tbn, 30 tbc (default)
    Metadata:
      handler_name    : VideoHandler
      encoder         : Lavc58.35.100 mjpeg
    Side data:
      cpb: bitrate max/min/avg: 0/0/200000 buffer size: 0 vbv_delay: -1
frame=    1 fps=0.0 q=6.2 Lsize=N/A time=00:00:00.03 bitrate=N/A speed=0.665x    
video:42kB audio:0kB subtitle:0kB other streams:0kB global headers:0kB muxing overhead: unknown
/Library/Frameworks/Python.framework/Versions/3.8/lib/python3.8/site-packages/ipfshttpclient/client/__init__.py:75: VersionMismatch: Unsupported daemon version '0.10.0' (not in range: 0.5.0 ≤ … < 0.9.0)
  warnings.warn(exceptions.VersionMismatch(version, minimum, maximum))
<ipfshttpclient.client.base.ResponseBase: {'Name': 'test_engine.mp4', 'Hash': 'QmRiCwvf6542S3SV6JSnLriEoHTom1MrT55steKsAt8s9K', 'Size': '13445808'}>
QmRiCwvf6542S3SV6JSnLriEoHTom1MrT55steKsAt8s9K
➜  textilehub-test git:(main) ✗ cd assets 
➜  assets git:(main) ✗ hub bucket push
> new file:  QmS1xpPqS6p7LMu8erRLjWf2M6mrCnxL2E6zA886Sy6sed
> new file:  QmXaGLJH1ff1ekZuE6wrLRxiQHBhaybBCqFMd3rT9iAT6x
> new file:  QmaJGSviXRMRu9e118yJGDn29Us29oWC3ZA5M9NjsYT6Jw
> new file:  QmfGt2TBVAUAqBWfDZG4dDcJRTPp59GNBMBNFqLpaLEZkF
Push 4 changes: y█
+ bafybeic4rmaazd667roebor44mesnapqd367nainotcrw2nckuuxnufx5i QmS1xpPqS6p7LMu8erRLjWf2M6mrCnxL2E6zA886Sy6sed 12.94 MiB
+ bafkreiccev7bfxvaxbvp3xd6ce6gignsujwuqig63i3vkwshweiwqzicyu QmaJGSviXRMRu9e118yJGDn29Us29oWC3ZA5M9NjsYT6Jw 780 B
+ bafybeifj3guwgm2bjyjw3v5sj57ssjg6yzppwjpyjlrmcxgxupzo4yycbm QmXaGLJH1ff1ekZuE6wrLRxiQHBhaybBCqFMd3rT9iAT6x 12.94 MiB
+ bafkreia24d6325nriwuwilrfjtm4v4cy4fqjjornbbzunycxvp3tadupmu QmfGt2TBVAUAqBWfDZG4dDcJRTPp59GNBMBNFqLpaLEZkF 777 B
25.87 MiB / 25.87 MiB [==============================================================================>] 100.00% 35s> bafybeiecy2f4ipti5j5la6ib3ev2y7v7nisz6nfm53qs6rmnuihe3ojq6i
➜  assets git:(main) ✗ python3 mint_nft.py -t 1730 -u https://hub.textile.io/ipns/bafzbeigc2hg7qu77jgt7rbne4mmq6eciwiyy5xsavmnzsfti4yr3rfyfiq/QmaJGSviXRMRu9e118yJGDn29Us29oWC3ZA5M9NjsYT6Jw
/Library/Frameworks/Python.framework/Versions/3.8/bin/python3: can't open file 'mint_nft.py': [Errno 2] No such file or directory
➜  assets git:(main) ✗ cd ..
➜  textilehub-test git:(main) ✗ python3 mint_nft.py -t 1730 -u https://hub.textile.io/ipns/bafzbeigc2hg7qu77jgt7rbne4mmq6eciwiyy5xsavmnzsfti4yr3rfyfiq/QmaJGSviXRMRu9e118yJGDn29Us29oWC3ZA5M9NjsYT6Jw
Current block 9542323
0x902e5A37d3cCd68563C27AE7dBC35A63f0fD6035
<web3.contract.ContractFunctions object at 0x7fabe74a8160>
mint tx-hash 0x5274772d9bfc2a4f12931f2dc6cbdc503da123dc6d2058896f778f56d3190eaf
Transaction receipt mined:
{'blockHash': HexBytes('0x9e09a0d462b66f19ddeda4432f0814e808eaf5b67dc62b9497bea8eff4b66c70'),
 'blockNumber': 9542324,
 'contractAddress': None,
 'cumulativeGasUsed': 180827,
 'effectiveGasPrice': 21000000000,
 'from': '0x902e5A37d3cCd68563C27AE7dBC35A63f0fD6035',
 'gasUsed': 24411,
 'logs': [],
 'logsBloom': HexBytes('0x00000000000000000000000000000000000000000000000000000000000000000000000000000000000000000000000000000000000000000000000000000000000000000000000000000000000000000000000000000000000000000000000000000000000000000000000000000000000000000000000000000000000000000000000000000000000000000000000000000000000000000000000000000000000000000000000000000000000000000000000000000000000000000000000000000000000000000000000000000000000000000000000000000000000000000000000000000000000000000000000000000000000000000000000000000000'),
 'status': 0,
 'to': '0x3649D96eCf0bD2808B2836386Aba919EC14Aa719',
 'transactionHash': HexBytes('0x5274772d9bfc2a4f12931f2dc6cbdc503da123dc6d2058896f778f56d3190eaf'),
 'transactionIndex': 1,
 'type': '0x0'}

Was transaction successful?
0
mint tx-hash 0xbe9452fbd6e96dcf8c774648018d19e21921e9b2690202f158147a45afc45d4c
Transaction receipt mined:
{'blockHash': HexBytes('0x09e93614fd9f452184281afbf2e94530ea6e775923f31e59a52cd93e379a910b'),
 'blockNumber': 9542325,
 'contractAddress': None,
 'cumulativeGasUsed': 205478,
 'effectiveGasPrice': 21000000000,
 'from': '0x902e5A37d3cCd68563C27AE7dBC35A63f0fD6035',
 'gasUsed': 49062,
 'logs': [],
 'logsBloom': HexBytes('0x00000000000000000000000000000000000000000000000000000000000000000000000000000000000000000000000000000000000000000000000000000000000000000000000000000000000000000000000000000000000000000000000000000000000000000000000000000000000000000000000000000000000000000000000000000000000000000000000000000000000000000000000000000000000000000000000000000000000000000000000000000000000000000000000000000000000000000000000000000000000000000000000000000000000000000000000000000000000000000000000000000000000000000000000000000000'),
 'status': 1,
 'to': '0x3649D96eCf0bD2808B2836386Aba919EC14Aa719',
 'transactionHash': HexBytes('0xbe9452fbd6e96dcf8c774648018d19e21921e9b2690202f158147a45afc45d4c'),
 'transactionIndex': 1,
 'type': '0x0'}

Was transaction successful?
1
